# xmcd
#
# Track frame offsets:
#	150
#	14270
#	26420
#	38592
#	51165
#	63150
#	78225
#	92257
#	106352
#	117700
#	131445
#	142742
#	156350
#	175312
#	189162
#	203475
#
# Disc length: 2907 seconds
#
# Revision: 1
# Processed by: cddbd v1.5.1PL0 Copyright (c) Steve Scherf et al.
# Submitted via: EasyCDDAExtractor 6.0.0.1
#
DISCID=c00b5910
DTITLE=Red Jenkins - Spotlight
DYEAR=1992
DGENRE=Country
TTITLE0=Lonestar lonesome
TTITLE1=Honky tonk crazy
TTITLE2=Good woman blues
TTITLE3=Play the saddest song on the jukebox
TTITLE4=Southern loving
TTITLE5=A little bit of Texas in my life
TTITLE6=Julie loved Boston more than me
TTITLE7=Bombed, boozed and busted
TTITLE8=Whiskey'd over
TTITLE9=Ain't gonna be shackled
TTITLE10=Love's found you and me
TTITLE11=A different kind of flower
TTITLE12=A violin that never has been played
TTITLE13=Jag har alltid klarat mig
TTITLE14=Hembränt och årgångsvin
TTITLE15=Natten är vår
EXTD=ID3G: 2
EXTT0=
EXTT1=
EXTT2=
EXTT3=
EXTT4=
EXTT5=
EXTT6=
EXTT7=
EXTT8=
EXTT9=
EXTT10=
EXTT11=
EXTT12=
EXTT13=
EXTT14=
EXTT15=
PLAYORDER=
